<svg width="2334" height="402" viewBox="0 0 2334 402" xmlns="http://www.w3.org/2000/svg"><g transform="translate(-41.60 -0.30) scale(7.6000)" fill="none" stroke="#C9A84C" stroke-width="3" stroke-linecap="round" stroke-linejoin="round"><path d="M32 21c0-4 3-6.5 6.5-5.6 2.3.6 3.4 2.5 2.7 4.4"/><path d="M32 21 16 39h32L32 21z"/></g><g transform="translate(383.20 80.00)"><path d="M36 63.20L36 63.20Q23.40 63.20 17.70 69.20Q12 75.20 9.80 90.60L9.80 90.60Q9.80 91 8.60 91Q7.40 91 7.40 90.60L7.40 90.60Q7.80 88.20 8.30 83.60Q8.80 79 9.20 73.70Q9.60 68.40 9.90 63.50Q10.20 58.60 10.20 55.40L10.20 55.40Q10.20 54.40 11.40 54.40Q12.60 54.40 12.60 55.40L12.60 55.40Q12.60 57.40 14.50 58.30Q16.40 59.20 18.90 59.50Q21.40 59.80 23.20 59.80L23.20 59.80Q40.40 60.40 63.40 60.40L63.40 60.40Q77.60 60.40 85.90 60.10Q94.20 59.80 102 59.80L102 59.80Q108.60 59.80 112.30 58.90Q116 58 117 54.80L117 54.80Q117.20 54 118.20 54Q119.20 54 119.20 54.80L119.20 54.80Q119 57.80 118.60 62.80Q118.20 67.80 118 73.30Q117.80 78.80 117.60 83.50Q117.40 88.20 117.40 90.60L117.40 90.60Q117.40 91 116.20 91Q115 91 115 90.60L115 90.60Q115 75.20 109.80 69.20Q104.60 63.20 90.80 63.20L90.80 63.20Q81.40 63.20 76.70 63.90Q72 64.60 70.50 67.30Q69 70 69 76.40L69 76.40L69 168.60Q69 174.40 70.40 177.40Q71.80 180.40 76.10 181.40Q80.40 182.40 89.20 182.40L89.20 182.40Q89.60 182.40 89.60 183.60Q89.60 184.80 89.20 184.80L89.20 184.80Q84 184.80 77.50 184.60Q71 184.40 63.40 184.40L63.40 184.40Q56.20 184.40 49.70 184.60Q43.20 184.80 37.80 184.80L37.80 184.80Q37.40 184.80 37.40 183.60Q37.40 182.40 37.80 182.40L37.80 182.40Q46.40 182.40 50.80 181.40Q55.20 180.40 56.70 177.40Q58.20 174.40 58.20 168.60L58.20 168.60L58.20 76Q58.20 69.60 56.60 66.90Q55 64.20 50.20 63.70Q45.40 63.20 36 63.20ZM131.80 184.80L131.80 184.80Q131.20 184.80 131.20 183.60Q131.20 182.40 131.80 182.40L131.80 182.40Q140 182.40 142.40 179.80Q144.80 177.20 144.80 168.60L144.80 168.60L144.80 64.80Q144.80 57.60 143.40 54.30Q142 51 138.40 51L138.40 51Q135.20 51 128.80 54L128.80 54Q128 54.40 127.50 53.30Q127 52.20 127.80 51.80L127.80 51.80L152.40 39.80Q152.60 39.80 152.60 39.80Q152.60 39.80 152.80 39.80L152.80 39.80Q153.40 39.80 153.80 40.20Q154.20 40.60 154.20 41.20L154.20 41.20L154.20 168.60Q154.20 177.20 156.60 179.80Q159 182.40 167.40 182.40L167.40 182.40Q167.80 182.40 167.80 183.60Q167.80 184.80 167.40 184.80L167.40 184.80Q163.80 184.80 159.30 184.60Q154.80 184.40 149.60 184.40L149.60 184.40Q144.60 184.40 139.90 184.60Q135.20 184.80 131.80 184.80ZM185.60 184.80L185.60 184.80Q185 184.80 185 183.60Q185 182.40 185.60 182.40L185.60 182.40Q193.80 182.40 196.20 179.80Q198.60 177.20 198.60 168.60L198.60 168.60L198.60 136Q198.60 112.20 179.80 112.20L179.80 112.20Q172 112.20 164.10 117.30Q156.20 122.40 150.40 131L150.40 131L149.60 128.60Q159 116.20 167.60 110.90Q176.20 105.60 185.20 105.60L185.20 105.60Q196 105.60 202 111.50Q208 117.40 208 129.80L208 129.80L208 168.60Q208 177.20 210.40 179.80Q212.80 182.40 221.20 182.40L221.20 182.40Q221.60 182.40 221.60 183.60Q221.60 184.80 221.20 184.80L221.20 184.80Q217.60 184.80 213.10 184.60Q208.60 184.40 203.40 184.40L203.40 184.40Q198.40 184.40 193.70 184.60Q189 184.80 185.60 184.80ZM268.60 187.20L268.60 187.20Q256.80 187.20 248.90 181.70Q241.00 176.20 237.00 167.40Q233.00 158.60 233.00 148.80L233.00 148.80Q233.00 136.60 238.60 126.90Q244.20 117.20 253.70 111.50Q263.20 105.80 274.40 105.80L274.40 105.80Q285.80 105.80 291.40 112.00Q297 118.20 297 128.60L297 128.60Q297 131.20 296.50 132.40Q296 133.60 294.60 133.60L294.60 133.60L285.20 133.60Q286.20 121.20 281.30 115.50Q276.40 109.80 268 109.80L268 109.80Q256.80 109.80 250.60 118.30Q244.40 126.80 244.40 141.60L244.40 141.60Q244.40 152.80 248.00 161.70Q251.60 170.60 258.60 175.70Q265.60 180.80 275.60 180.80L275.60 180.80Q282.60 180.80 287.10 178.70Q291.60 176.60 295.80 174L295.80 174Q296.20 173.60 296.90 174.50Q297.60 175.40 297.20 176L297.20 176Q290.20 182 283.10 184.60Q276 187.20 268.60 187.20ZM287.20 133.60L241.80 133.80L241.60 131.40L287.20 130.60L287.20 133.60ZM434.40 187.20L434.40 187.20Q417.60 187.20 404.30 182Q391.00 176.80 381.90 167.60Q372.80 158.40 368.00 146.50Q363.20 134.60 363.20 121.20L363.20 121.20Q363.20 106.20 368.90 94.50Q374.60 82.80 384.70 74.50Q394.80 66.20 408.30 61.90Q421.80 57.60 437.40 57.60L437.40 57.60Q448.60 57.60 457.80 59.80Q467.00 62 473.20 66L473.20 66Q474.60 66.80 474.80 67.40Q475.00 68 475.20 70.40L475.20 70.40L477.60 92.80Q477.60 93.40 476.60 93.60Q475.60 93.80 475.20 93.20L475.20 93.20Q473.00 85 469.70 78.90Q466.40 72.80 461.50 68.80Q456.60 64.80 450.00 62.70Q443.40 60.60 434.60 60.60L434.60 60.60Q418.20 60.60 405.00 67.60Q391.80 74.60 384.10 87.60Q376.40 100.60 376.40 118.60L376.40 118.60Q376.40 130.20 380.10 141.90Q383.80 153.60 391.50 163.20Q399.20 172.80 411.20 178.60Q423.20 184.40 439.80 184.40L439.80 184.40Q449.80 184.40 455.70 181.80Q461.60 179.20 464.20 173.80Q466.80 168.40 466.80 159.80L466.80 159.80Q466.80 150.20 465.50 145.70Q464.20 141.20 459.30 139.80Q454.40 138.40 443.40 138.40L443.40 138.40Q442.20 138.40 442.20 136.80Q442.20 135.20 443.20 135.20L443.20 135.20Q455.60 136 465.80 136.10Q476.00 136.20 487.20 135.60L487.20 135.60Q488.20 135.60 488.20 137Q488.20 138.40 487.20 138.40L487.20 138.40Q482.20 138.20 479.90 139.70Q477.60 141.20 477.00 146.20Q476.40 151.20 476.40 161.80L476.40 161.80Q476.40 168.40 476.80 171.60Q477.20 174.80 477.50 176.30Q477.80 177.80 477.80 179.40L477.80 179.40Q477.80 180.60 477.40 181Q477.00 181.40 475.60 181.80L475.60 181.80Q465.60 184 454.70 185.60Q443.80 187.20 434.40 187.20ZM578.40 176.20L557.80 186Q557 186.40 556.20 186.40L556.20 186.40Q553.80 186.40 551.80 182.20Q549.80 178 549.80 170L549.80 170L549.80 131.40Q549.80 119.00 545.90 114.20Q542 109.40 536.20 109.40L536.20 109.40Q531.20 109.40 527.90 111.70Q524.60 114.00 522.90 117.40Q521.20 120.80 520.40 123.80L520.40 123.80Q520 125.80 519 128.50Q518 131.20 514 131.20L514 131.20Q511.00 131.20 509.50 129.40Q508.00 127.60 508.00 125.60L508.00 125.60Q508.00 122.20 511.60 118.70Q515.20 115.20 520.70 112.20Q526.20 109.20 532.20 107.40Q538.20 105.60 543.20 105.60L543.20 105.60Q551.40 105.60 555.20 110.90Q559 116.20 559 125.40L559 125.40L559 163.20Q559 170.40 560.70 173.70Q562.40 177 566.60 177L566.60 177Q570.40 177 577.60 174L577.60 174Q578.60 173.60 579 174.70Q579.40 175.80 578.40 176.20L578.40 176.20ZM522.40 186.20L522.40 186.20Q515 186.20 511.10 182.10Q507.20 178 507.20 172.60L507.20 172.60Q507.20 169.20 508.90 166Q510.60 162.80 514.90 159.80Q519.20 156.80 526.80 154L526.80 154L551.80 144.60L552.20 147.20L528.60 156.20Q524.40 157.80 522.20 159.70Q520 161.60 519.20 163.70Q518.40 165.80 518.40 168L518.40 168Q518.40 172.40 521.30 176Q524.20 179.60 529.80 179.60L529.80 179.60Q532 179.60 534.40 178.90Q536.80 178.20 540.20 176.20L540.20 176.20L553.60 168.40L554 170.80L539 180.20Q534 183.40 530.20 184.80Q526.40 186.20 522.40 186.20ZM606.80 130.60L606.80 130.60L606 128.60Q613.40 119.40 618.10 114.50Q622.80 109.60 626.20 107.70Q629.60 105.80 632.80 105.80L632.80 105.80Q637 105.80 641 108Q645 110.20 645 113.40L645 113.40Q645 115.40 643.50 117.00Q642 118.60 639.20 118.60L639.20 118.60Q636.80 118.60 635.10 117.20Q633.40 115.80 631.40 114.50Q629.40 113.20 626 113.20L626 113.20Q624.20 113.20 622.10 114.30Q620 115.40 616.50 119.10Q613 122.80 606.80 130.60ZM588.20 184.80L588.20 184.80Q587.60 184.80 587.60 183.60Q587.60 182.40 588.20 182.40L588.20 182.40Q596.40 182.40 598.80 179.80Q601.20 177.20 601.20 168.60L601.20 168.60L601.20 128.60Q601.20 121.80 599.60 118.70Q598 115.60 594 115.60L594 115.60Q592 115.60 589.20 116.40Q586.40 117.20 582.80 118.60L582.80 118.60Q582 118.80 581.50 117.80Q581 116.80 581.80 116.40L581.80 116.40L604 106Q604.40 105.80 605 105.80L605 105.80Q606.40 105.80 608.50 109.90Q610.60 114.00 610.60 121.80L610.60 121.80L610.60 168.60Q610.60 174.40 612 177.40Q613.40 180.40 617.70 181.40Q622 182.40 630.60 182.40L630.60 182.40Q631.20 182.40 631.20 183.60Q631.20 184.80 630.60 184.80L630.60 184.80Q625.80 184.80 619.40 184.60Q613 184.40 606 184.40L606 184.40Q601 184.40 596.30 184.60Q591.60 184.80 588.20 184.80ZM763 184.80L763 184.80Q762.60 184.80 762.60 183.60Q762.60 182.40 763 182.40L763 182.40Q771.20 182.40 773.70 179.80Q776.20 177.20 776.20 168.60L776.20 168.60L776.20 136Q776.20 112.20 758.40 112.20L758.40 112.20Q751 112.20 743.50 117.30Q736 122.40 730.20 131L730.20 131L729.40 128.60Q738.60 116.20 746.90 110.90Q755.20 105.60 763.80 105.60L763.80 105.60Q774.20 105.60 779.90 111.50Q785.60 117.40 785.60 129.80L785.60 129.80L785.60 168.60Q785.60 177.20 787.90 179.80Q790.20 182.40 798.60 182.40L798.60 182.40Q799.20 182.40 799.20 183.60Q799.20 184.80 798.60 184.80L798.60 184.80Q795.20 184.80 790.60 184.60Q786 184.40 780.80 184.40L780.80 184.40Q775.80 184.40 771.20 184.60Q766.60 184.80 763 184.80ZM711.60 184.80L711.60 184.80Q711 184.80 711 183.60Q711 182.40 711.60 182.40L711.60 182.40Q719.80 182.40 722.20 179.80Q724.60 177.20 724.60 168.60L724.60 168.60L724.60 136Q724.60 112.20 707 112.20L707 112.20Q699.60 112.20 692.10 117.30Q684.60 122.40 678.80 131L678.80 131L678 128.60Q687 116.20 695.30 110.90Q703.60 105.60 712.20 105.60L712.20 105.60Q722.60 105.60 728.30 111.50Q734 117.40 734 129.80L734 129.80L734 168.60Q734 177.20 736.40 179.80Q738.80 182.40 747.20 182.40L747.20 182.40Q747.60 182.40 747.60 183.60Q747.60 184.80 747.20 184.80L747.20 184.80Q743.60 184.80 739.10 184.60Q734.60 184.40 729.40 184.40L729.40 184.40Q724.40 184.40 719.70 184.60Q715 184.80 711.60 184.80ZM660.20 184.80L660.20 184.80Q659.60 184.80 659.60 183.60Q659.60 182.40 660.20 182.40L660.20 182.40Q668.40 182.40 670.80 179.80Q673.20 177.20 673.20 168.60L673.20 168.60L673.20 128.60Q673.20 121.80 671.60 118.70Q670 115.60 666 115.60L666 115.60Q664 115.60 661.20 116.40Q658.40 117.20 654.80 118.60L654.80 118.60Q654 118.80 653.50 117.80Q653 116.80 653.80 116.40L653.80 116.40L676 106Q676.40 105.80 677 105.80L677 105.80Q678.40 105.80 680.50 109.90Q682.60 114.00 682.60 121.80L682.60 121.80L682.60 168.60Q682.60 177.20 684.90 179.80Q687.20 182.40 695.60 182.40L695.60 182.40Q696.20 182.40 696.20 183.60Q696.20 184.80 695.60 184.80L695.60 184.80Q692.20 184.80 687.60 184.60Q683 184.40 678 184.40L678 184.40Q673 184.40 668.30 184.60Q663.60 184.80 660.20 184.80ZM846 187.20L846 187.20Q834.20 187.20 826.30 181.70Q818.40 176.20 814.40 167.40Q810.40 158.60 810.40 148.80L810.40 148.80Q810.40 136.60 816 126.90Q821.60 117.20 831.10 111.50Q840.60 105.80 851.80 105.80L851.80 105.80Q863.20 105.80 868.80 112.00Q874.40 118.20 874.40 128.60L874.40 128.60Q874.40 131.20 873.90 132.40Q873.40 133.60 872 133.60L872 133.60L862.60 133.60Q863.60 121.20 858.70 115.50Q853.80 109.80 845.40 109.80L845.40 109.80Q834.20 109.80 828 118.30Q821.80 126.80 821.80 141.60L821.80 141.60Q821.80 152.80 825.40 161.70Q829 170.60 836 175.70Q843 180.80 853 180.80L853 180.80Q860 180.80 864.50 178.70Q869 176.60 873.20 174L873.20 174Q873.60 173.60 874.30 174.50Q875 175.40 874.60 176L874.60 176Q867.60 182 860.50 184.60Q853.40 187.20 846 187.20ZM864.60 133.60L819.20 133.80L819 131.40L864.60 130.60L864.60 133.60ZM947 184.80L947 184.80Q946.40 184.80 946.40 183.60Q946.40 182.40 947 182.40L947 182.40Q955.20 182.40 957.60 179.80Q960 177.20 960 168.60L960 168.60L960 135.20Q960 123 955.40 117.40Q950.80 111.80 941 111.80L941 111.80Q933.40 111.80 925.50 116.80Q917.60 121.80 911.80 130.60L911.80 130.60L911 128.20Q920.40 115.80 929 110.40Q937.60 105 946.40 105L946.40 105Q957.40 105 963.40 110.90Q969.40 116.80 969.40 129.20L969.40 129.20L969.40 168.60Q969.40 177.20 971.70 179.80Q974 182.40 982.40 182.40L982.40 182.40Q983 182.40 983 183.60Q983 184.80 982.40 184.80L982.40 184.80Q979 184.80 974.40 184.60Q969.80 184.40 964.80 184.40L964.80 184.40Q959.80 184.40 955.10 184.60Q950.40 184.80 947 184.80ZM893.20 184.80L893.20 184.80Q892.60 184.80 892.60 183.60Q892.60 182.40 893.20 182.40L893.20 182.40Q901.40 182.40 903.80 179.80Q906.20 177.20 906.20 168.60L906.20 168.60L906.20 128.60Q906.20 121.80 904.60 118.70Q903 115.60 899 115.60L899 115.60Q897 115.60 894.20 116.40Q891.40 117.20 887.80 118.60L887.80 118.60Q887 118.80 886.50 117.80Q886 116.80 886.80 116.40L886.80 116.40L909 106Q909.40 105.80 910 105.80L910 105.80Q911.40 105.80 913.50 109.90Q915.60 114.00 915.60 121.80L915.60 121.80L915.60 168.60Q915.60 177.20 917.90 179.80Q920.20 182.40 928.60 182.40L928.60 182.40Q929.20 182.40 929.20 183.60Q929.20 184.80 928.60 184.80L928.60 184.80Q925.20 184.80 920.60 184.60Q916 184.40 911 184.40L911 184.40Q906 184.40 901.30 184.60Q896.60 184.80 893.20 184.80ZM1024.80 187.20L1024.80 187.20Q1020 187.20 1015.70 185.70Q1011.40 184.20 1008.80 180.70Q1006.20 177.20 1006.20 171.20L1006.20 171.20L1006.20 123.60Q1006.20 118.60 1005.60 116.30Q1005 114.00 1002.80 113.30Q1000.60 112.60 995.80 112.60L995.80 112.60Q995.20 112.60 995.20 111.40Q995.20 110.20 995.80 110.20L995.80 110.20Q1003.40 110.20 1008.10 106Q1012.80 101.80 1012.80 95.40L1012.80 95.40Q1012.80 94.80 1014.30 94.80Q1015.80 94.80 1015.80 95.40L1015.80 95.40L1015.80 164.40Q1015.80 172.80 1019.90 176.90Q1024 181 1032 181L1032 181Q1037.40 181 1041.50 179.30Q1045.60 177.60 1048.20 175.60L1048.20 175.60Q1049 175.20 1049.60 176.10Q1050.20 177 1049.40 177.60L1049.40 177.60Q1042 182.80 1036.40 185Q1030.80 187.20 1024.80 187.20ZM1043.40 117.20L1043.40 117.20Q1035.60 115.20 1028.50 114.70Q1021.40 114.20 1013.40 114.20L1013.40 114.20L1013.40 110.00Q1021.20 110.00 1028.50 109.40Q1035.80 108.80 1044 108L1044 108Q1044.60 108 1045 109.30Q1045.40 110.60 1045.40 112.60L1045.40 112.60Q1045.40 114.00 1044.80 115.70Q1044.20 117.40 1043.40 117.20ZM1183 57.60L1183 57.60Q1192 57.60 1198.50 58.40Q1205 59.20 1210.60 61.10Q1216.20 63 1222.40 66.20L1222.40 66.20Q1223.60 67 1223.90 67.50Q1224.20 68 1224.40 70.60L1224.40 70.60L1226.80 93.40Q1226.80 93.80 1225.70 94.10Q1224.60 94.40 1224.40 93.60L1224.40 93.60Q1220 77 1209.90 68.70Q1199.80 60.40 1183 60.40L1183 60.40Q1165.20 60.40 1152 67.80Q1138.80 75.20 1131.50 88.80Q1124.20 102.40 1124.20 120.80L1124.20 120.80Q1124.20 133.80 1128.90 145.40Q1133.60 157 1141.90 165.80Q1150.20 174.60 1160.80 179.60Q1171.40 184.60 1183.40 184.60L1183.40 184.60Q1200.60 184.60 1211 176.30Q1221.40 168 1225.80 152L1225.80 152Q1226 151.40 1227.10 151.60Q1228.20 151.80 1228.20 152.20L1228.20 152.20L1226.60 173.40Q1226.40 175.80 1226 176.40Q1225.60 177 1224.40 177.80L1224.40 177.80Q1213.80 183.40 1204.70 185.40Q1195.60 187.40 1183.20 187.40L1183.20 187.40Q1162.20 187.40 1146 179.10Q1129.80 170.80 1120.60 155.80Q1111.40 140.80 1111.40 121L1111.40 121Q1111.40 106.60 1116.70 95Q1122 83.40 1131.70 75Q1141.40 66.60 1154.40 62.10Q1167.40 57.60 1183 57.60ZM1285 187.40L1285 187.40Q1273.20 187.40 1264.50 181.60Q1255.80 175.80 1251.10 166.10Q1246.40 156.40 1246.40 145.20L1246.40 145.20Q1246.40 134.80 1250.20 127.20Q1254 119.60 1260.30 114.70Q1266.60 109.80 1274 107.40Q1281.40 105 1288.60 105L1288.60 105Q1300.60 105 1309.20 111.00Q1317.80 117.00 1322.40 126.40Q1327 135.80 1327 146.20L1327 146.20Q1327 159 1321.20 168.20Q1315.40 177.40 1305.90 182.40Q1296.40 187.40 1285 187.40ZM1290.60 183.80L1290.60 183.80Q1301.80 183.80 1308.60 176.30Q1315.40 168.80 1315.40 151.40L1315.40 151.40Q1315.40 139.20 1311.20 129.60Q1307 120.00 1299.50 114.40Q1292 108.80 1282 108.80L1282 108.80Q1270.60 108.80 1264.20 116.70Q1257.80 124.60 1257.80 139.40L1257.80 139.40Q1257.80 151.20 1261.90 161.40Q1266 171.60 1273.40 177.70Q1280.80 183.80 1290.60 183.80ZM1397.40 184.80L1397.40 184.80Q1396.80 184.80 1396.80 183.60Q1396.80 182.40 1397.40 182.40L1397.40 182.40Q1405.60 182.40 1408 179.80Q1410.40 177.20 1410.40 168.60L1410.40 168.60L1410.40 135.20Q1410.40 123 1405.80 117.40Q1401.20 111.80 1391.40 111.80L1391.40 111.80Q1383.80 111.80 1375.90 116.80Q1368 121.80 1362.20 130.60L1362.20 130.60L1361.40 128.20Q1370.80 115.80 1379.40 110.40Q1388 105 1396.80 105L1396.80 105Q1407.80 105 1413.80 110.90Q1419.80 116.80 1419.80 129.20L1419.80 129.20L1419.80 168.60Q1419.80 177.20 1422.10 179.80Q1424.40 182.40 1432.80 182.40L1432.80 182.40Q1433.40 182.40 1433.40 183.60Q1433.40 184.80 1432.80 184.80L1432.80 184.80Q1429.40 184.80 1424.80 184.60Q1420.20 184.40 1415.20 184.40L1415.20 184.40Q1410.20 184.40 1405.50 184.60Q1400.80 184.80 1397.40 184.80ZM1343.60 184.80L1343.60 184.80Q1343 184.80 1343 183.60Q1343 182.40 1343.60 182.40L1343.60 182.40Q1351.80 182.40 1354.20 179.80Q1356.60 177.20 1356.60 168.60L1356.60 168.60L1356.60 128.60Q1356.60 121.80 1355 118.70Q1353.40 115.60 1349.40 115.60L1349.40 115.60Q1347.40 115.60 1344.60 116.40Q1341.80 117.20 1338.20 118.60L1338.20 118.60Q1337.40 118.80 1336.90 117.80Q1336.40 116.80 1337.20 116.40L1337.20 116.40L1359.40 106Q1359.80 105.80 1360.40 105.80L1360.40 105.80Q1361.80 105.80 1363.90 109.90Q1366 114.00 1366 121.80L1366 121.80L1366 168.60Q1366 177.20 1368.30 179.80Q1370.60 182.40 1379 182.40L1379 182.40Q1379.60 182.40 1379.60 183.60Q1379.60 184.80 1379 184.80L1379 184.80Q1375.60 184.80 1371 184.60Q1366.40 184.40 1361.40 184.40L1361.40 184.40Q1356.40 184.40 1351.70 184.60Q1347 184.80 1343.60 184.80ZM1483.40 187.20L1483.40 187.20Q1469.80 187.20 1461.30 181.30Q1452.80 175.40 1448.80 166.30Q1444.80 157.20 1444.80 147.80L1444.80 147.80Q1444.80 137.80 1448.60 130Q1452.40 122.20 1458.70 116.80Q1465 111.40 1472.60 108.60Q1480.20 105.80 1487.60 105.80L1487.60 105.80Q1493.20 105.80 1498.40 107.30Q1503.60 108.80 1507 111.40Q1510.40 114.00 1510.40 117.20L1510.40 117.20Q1510.40 119.60 1508.90 121.30Q1507.40 123 1504.60 123L1504.60 123Q1501.80 123 1499.80 121.20Q1497.80 119.40 1496.60 117.40L1496.60 117.40Q1494.20 114.00 1490.90 111.90Q1487.60 109.80 1481.20 109.80L1481.20 109.80Q1469 109.80 1462.60 118.70Q1456.20 127.60 1456.20 142L1456.20 142Q1456.20 152.20 1459.80 161.10Q1463.40 170 1470.90 175.50Q1478.40 181 1490.40 181L1490.40 181Q1495.60 181 1501.10 179.50Q1506.60 178 1511 174L1511 174Q1511.60 173.60 1512.30 174.40Q1513 175.20 1512.40 175.60L1512.40 175.60Q1505.60 181.80 1498.60 184.50Q1491.60 187.20 1483.40 187.20ZM1530.20 184.80L1530.20 184.80Q1529.80 184.80 1529.80 183.60Q1529.80 182.40 1530.20 182.40L1530.20 182.40Q1538.40 182.40 1540.90 179.80Q1543.40 177.20 1543.40 168.60L1543.40 168.60L1543.40 130.80Q1543.40 123.60 1542.00 120.30Q1540.60 117.00 1536.80 117.00L1536.80 117.00Q1535.00 117.00 1532.70 117.70Q1530.40 118.40 1527.20 120.00L1527.20 120.00Q1526.40 120.20 1525.90 119.10Q1525.40 118.00 1526.20 117.60L1526.20 117.60L1551.00 106Q1551.60 105.80 1551.80 105.80L1551.80 105.80Q1552.20 105.80 1552.70 106.20Q1553.20 106.60 1553.20 107.20L1553.20 107.20Q1553.20 108.60 1553.00 114.90Q1552.80 121.20 1552.80 130.60L1552.80 130.60L1552.80 168.60Q1552.80 177.20 1555.10 179.80Q1557.40 182.40 1565.80 182.40L1565.80 182.40Q1566.40 182.40 1566.40 183.60Q1566.40 184.80 1565.80 184.80L1565.80 184.80Q1562.40 184.80 1557.80 184.60Q1553.20 184.40 1548.00 184.40L1548.00 184.40Q1543.00 184.40 1538.40 184.60Q1533.80 184.80 1530.20 184.80ZM1546.40 81.60L1546.40 81.60Q1542.60 81.60 1540.50 79.60Q1538.40 77.60 1538.40 74L1538.40 74Q1538.40 70.40 1540.50 68.40Q1542.60 66.40 1546.40 66.40L1546.40 66.40Q1550.00 66.40 1552.00 68.40Q1554.00 70.40 1554.00 74L1554.00 74Q1554.00 81.60 1546.40 81.60ZM1616.80 187.20L1616.80 187.20Q1605.00 187.20 1597.10 181.70Q1589.20 176.20 1585.20 167.40Q1581.20 158.60 1581.20 148.80L1581.20 148.80Q1581.20 136.60 1586.80 126.90Q1592.40 117.20 1601.90 111.50Q1611.40 105.80 1622.60 105.80L1622.60 105.80Q1634.00 105.80 1639.60 112.00Q1645.20 118.20 1645.20 128.60L1645.20 128.60Q1645.20 131.20 1644.70 132.40Q1644.20 133.60 1642.80 133.60L1642.80 133.60L1633.40 133.60Q1634.40 121.20 1629.50 115.50Q1624.60 109.80 1616.20 109.80L1616.20 109.80Q1605.00 109.80 1598.80 118.30Q1592.60 126.80 1592.60 141.60L1592.60 141.60Q1592.60 152.80 1596.20 161.70Q1599.80 170.60 1606.80 175.70Q1613.80 180.80 1623.80 180.80L1623.80 180.80Q1630.80 180.80 1635.30 178.70Q1639.80 176.60 1644.00 174L1644.00 174Q1644.40 173.60 1645.10 174.50Q1645.80 175.40 1645.40 176L1645.40 176Q1638.40 182 1631.30 184.60Q1624.20 187.20 1616.80 187.20ZM1635.40 133.60L1590.00 133.80L1589.80 131.40L1635.40 130.60L1635.40 133.60ZM1682.60 130.60L1682.60 130.60L1681.80 128.60Q1689.20 119.40 1693.90 114.50Q1698.60 109.60 1702.00 107.70Q1705.40 105.80 1708.60 105.80L1708.60 105.80Q1712.80 105.80 1716.80 108Q1720.80 110.20 1720.80 113.40L1720.80 113.40Q1720.80 115.40 1719.30 117.00Q1717.80 118.60 1715.00 118.60L1715.00 118.60Q1712.60 118.60 1710.90 117.20Q1709.20 115.80 1707.20 114.50Q1705.20 113.20 1701.80 113.20L1701.80 113.20Q1700.00 113.20 1697.90 114.30Q1695.80 115.40 1692.30 119.10Q1688.80 122.80 1682.60 130.60ZM1664.00 184.80L1664.00 184.80Q1663.40 184.80 1663.40 183.60Q1663.40 182.40 1664.00 182.40L1664.00 182.40Q1672.20 182.40 1674.60 179.80Q1677.00 177.20 1677.00 168.60L1677.00 168.60L1677.00 128.60Q1677.00 121.80 1675.40 118.70Q1673.80 115.60 1669.80 115.60L1669.80 115.60Q1667.80 115.60 1665.00 116.40Q1662.20 117.20 1658.60 118.60L1658.60 118.60Q1657.80 118.80 1657.30 117.80Q1656.80 116.80 1657.60 116.40L1657.60 116.40L1679.80 106Q1680.20 105.80 1680.80 105.80L1680.80 105.80Q1682.20 105.80 1684.30 109.90Q1686.40 114.00 1686.40 121.80L1686.40 121.80L1686.40 168.60Q1686.40 174.40 1687.80 177.40Q1689.20 180.40 1693.50 181.40Q1697.80 182.40 1706.40 182.40L1706.40 182.40Q1707.00 182.40 1707.00 183.60Q1707.00 184.80 1706.40 184.80L1706.40 184.80Q1701.60 184.80 1695.20 184.60Q1688.80 184.40 1681.80 184.40L1681.80 184.40Q1676.80 184.40 1672.10 184.60Q1667.40 184.80 1664.00 184.80ZM1760.20 240.80L1760.20 240.80Q1746.20 240.80 1738.70 234.50Q1731.20 228.20 1731.20 219L1731.20 219Q1731.20 208.60 1739.90 199.50Q1748.60 190.40 1763.40 182L1763.40 182L1765.60 184.60Q1759 187.80 1753.40 191.50Q1747.80 195.20 1744.40 200.30Q1741 205.40 1741 213.20L1741 213.20Q1741 219.60 1743.90 224.50Q1746.80 229.40 1752.70 232.10Q1758.60 234.80 1767.60 234.80L1767.60 234.80Q1782.20 234.80 1791.70 227.40Q1801.20 220 1801.20 207.20L1801.20 207.20Q1801.20 199 1797.10 195.40Q1793 191.80 1785.80 190.90Q1778.60 190 1769 190L1769 190Q1759.80 190 1752.30 189.30Q1744.80 188.60 1740.40 185.60Q1736 182.60 1736 176L1736 176Q1736 169.20 1740.20 164.50Q1744.40 159.80 1751.60 153.60L1751.60 153.60L1753.80 155.60Q1748.80 159.80 1746.80 163.10Q1744.80 166.40 1744.80 170L1744.80 170Q1744.80 174 1747.50 176.40Q1750.20 178.80 1756.80 179.90Q1763.40 181 1775 181L1775 181Q1779.40 181 1785.20 181.20Q1791 181.40 1796.60 183Q1802.20 184.60 1805.90 188.80Q1809.60 193 1809.60 201L1809.60 201Q1809.60 209.20 1805.50 216.40Q1801.40 223.60 1794.40 229.10Q1787.40 234.60 1778.50 237.70Q1769.60 240.80 1760.20 240.80ZM1766.60 158.20L1766.60 158.20Q1757 158.20 1750.30 154.70Q1743.60 151.20 1740 145.30Q1736.40 139.40 1736.40 132.40L1736.40 132.40Q1736.40 125.20 1740.10 119.30Q1743.80 113.40 1750.80 109.80Q1757.80 106.20 1767.60 106.20L1767.60 106.20Q1778.60 106.20 1785.10 110.20Q1791.60 114.20 1794.40 120.20Q1797.20 126.20 1797.20 132L1797.20 132Q1797.20 138.60 1793.70 144.60Q1790.20 150.60 1783.40 154.40Q1776.60 158.20 1766.60 158.20ZM1770.20 155.40L1770.20 155.40Q1777.20 155.40 1781.80 150.90Q1786.40 146.40 1786.40 136L1786.40 136Q1786.40 127.60 1783.30 121.60Q1780.20 115.60 1775 112.30Q1769.80 109.00 1763.20 109.00L1763.20 109.00Q1756.20 109.00 1751.60 113.30Q1747 117.60 1747 128L1747 128Q1747 137.60 1750.60 143.70Q1754.20 149.80 1759.50 152.60Q1764.80 155.40 1770.20 155.40ZM1786.40 115.00L1784.60 121L1784.60 114.20Q1790.80 110.60 1796.60 108.30Q1802.40 106 1809.40 106L1809.40 106Q1809.80 106 1810.10 107.40Q1810.40 108.80 1810.40 110.20L1810.40 110.20Q1810.40 112.20 1809.90 114.50Q1809.40 116.80 1808.60 116.40L1808.60 116.40Q1807.20 115.80 1803.80 114.70Q1800.40 113.60 1795.60 113.60L1795.60 113.60Q1793 113.60 1790.80 114.00Q1788.60 114.40 1786.40 115.00L1786.40 115.00ZM1853.80 187.20L1853.80 187.20Q1842 187.20 1834.10 181.70Q1826.20 176.20 1822.20 167.40Q1818.20 158.60 1818.20 148.80L1818.20 148.80Q1818.20 136.60 1823.80 126.90Q1829.40 117.20 1838.90 111.50Q1848.40 105.80 1859.60 105.80L1859.60 105.80Q1871 105.80 1876.60 112.00Q1882.20 118.20 1882.20 128.60L1882.20 128.60Q1882.20 131.20 1881.70 132.40Q1881.20 133.60 1879.80 133.60L1879.80 133.60L1870.40 133.60Q1871.40 121.20 1866.50 115.50Q1861.60 109.80 1853.20 109.80L1853.20 109.80Q1842 109.80 1835.80 118.30Q1829.60 126.80 1829.60 141.60L1829.60 141.60Q1829.60 152.80 1833.20 161.70Q1836.80 170.60 1843.80 175.70Q1850.80 180.80 1860.80 180.80L1860.80 180.80Q1867.80 180.80 1872.30 178.70Q1876.80 176.60 1881 174L1881 174Q1881.40 173.60 1882.10 174.50Q1882.80 175.40 1882.40 176L1882.40 176Q1875.40 182 1868.30 184.60Q1861.20 187.20 1853.80 187.20ZM1872.40 133.60L1827 133.80L1826.80 131.40L1872.40 130.60L1872.40 133.60Z" fill="#1B2B4B"/></g></svg>